<?xml version="1.0" standalone="no"?>
<!DOCTYPE svg PUBLIC "-//W3C//DTD SVG 20010904//EN"
 "http://www.w3.org/TR/2001/REC-SVG-20010904/DTD/svg10.dtd">
<svg version="1.0" xmlns="http://www.w3.org/2000/svg"
 width="500.000000pt" height="500.000000pt" viewBox="0 0 500.000000 500.000000"
 preserveAspectRatio="xMidYMid meet">

<g transform="translate(0.000000,500.000000) scale(0.100000,-0.100000)"
fill="#000000" stroke="none">
<path d="M957 3043 c-4 -3 -7 -249 -7 -545 l0 -538 1550 0 1550 0 -2 543 -3
542 -1541 3 c-847 1 -1544 -1 -1547 -5z m2820 -288 l42 -17 -20 -51 c-28 -70
-27 -69 -59 -52 -68 35 -184 31 -196 -7 -9 -30 11 -42 117 -68 72 -18 97 -29
131 -60 41 -36 43 -40 43 -96 0 -71 -25 -113 -88 -147 -36 -19 -57 -22 -152
-22 -93 1 -118 4 -162 24 -29 13 -53 25 -53 27 0 2 11 28 24 58 l24 54 59 -24
c70 -28 163 -33 187 -8 34 33 9 57 -84 78 -149 33 -200 76 -200 166 0 74 41
124 128 156 49 19 202 13 259 -11z m-2347 -115 c58 -71 108 -129 113 -130 4 0
7 59 7 130 l0 130 75 0 75 0 0 -265 0 -265 -62 0 -63 0 -112 136 -113 136 0
-136 0 -136 -75 0 -75 0 0 265 0 265 63 0 63 0 104 -130z m860 70 l0 -60 -130
0 -130 0 0 -40 0 -40 115 0 115 0 0 -60 0 -60 -115 0 -115 0 0 -45 0 -45 135
0 135 0 0 -60 0 -60 -215 0 -215 0 0 265 0 265 210 0 210 0 0 -60z m320 -72
c23 -73 46 -149 52 -168 11 -34 12 -32 67 133 l55 167 71 0 71 0 49 -160 c27
-88 52 -160 55 -160 3 0 28 71 56 158 l50 157 72 3 c45 2 72 -1 72 -7 0 -6
-27 -95 -61 -198 -34 -104 -71 -218 -83 -255 l-21 -68 -82 0 -83 0 -47 150
c-26 83 -50 150 -53 150 -4 0 -28 -67 -55 -150 l-48 -150 -83 0 -82 0 -72 223
c-40 122 -79 241 -86 265 l-13 42 79 0 79 0 41 -132z"/>
</g>
</svg>
