<?xml version="1.0" standalone="no"?>
<!DOCTYPE svg PUBLIC "-//W3C//DTD SVG 20010904//EN"
 "http://www.w3.org/TR/2001/REC-SVG-20010904/DTD/svg10.dtd">
<svg version="1.0" xmlns="http://www.w3.org/2000/svg"
 width="500.000000pt" height="500.000000pt" viewBox="0 0 500.000000 500.000000"
 preserveAspectRatio="xMidYMid meet">

<g transform="translate(0.000000,500.000000) scale(0.100000,-0.100000)"
fill="#000000" stroke="none">
<path d="M553 3593 c-10 -4 -13 -184 -13 -854 l0 -849 171 0 c94 0 169 3 167
8 -2 4 -25 52 -52 107 -163 334 -240 693 -262 1208 -8 190 -5 195 59 129 26
-26 94 -148 217 -390 311 -610 417 -783 577 -945 81 -82 164 -127 234 -127 26
0 54 3 63 6 14 6 16 90 16 855 l0 849 -170 0 c-109 0 -170 -4 -170 -10 0 -6
18 -46 40 -90 165 -328 252 -714 267 -1187 6 -185 5 -193 -13 -193 -103 0
-323 335 -639 975 -79 160 -161 317 -182 350 -51 77 -121 141 -169 154 -40 11
-119 13 -141 4z"/>
<path d="M3946 3590 c-321 -58 -556 -313 -607 -660 -18 -129 -7 -352 25 -474
48 -187 156 -363 273 -449 123 -90 242 -127 410 -127 130 0 233 23 339 75 75
37 167 110 162 129 -2 6 -30 55 -62 108 l-60 96 -42 -43 c-71 -74 -203 -125
-324 -125 -65 0 -177 26 -235 55 -205 100 -343 350 -364 659 -27 383 105 637
339 654 159 11 333 -60 479 -194 l66 -62 82 97 81 96 -35 36 c-40 42 -107 81
-190 110 -66 24 -253 34 -337 19z"/>
<path d="M1890 3584 c0 -3 71 -162 159 -352 87 -191 180 -396 207 -457 66
-150 88 -188 134 -229 36 -32 46 -36 95 -36 61 0 117 19 152 52 13 12 23 19
23 16 0 -4 -60 -151 -134 -327 -74 -176 -137 -329 -141 -341 -6 -20 -3 -20
195 -20 111 0 200 3 198 8 -86 170 -102 222 -113 349 -14 165 31 344 168 663
41 96 95 225 121 285 79 189 157 314 229 366 l40 29 -249 0 -249 0 40 -23 c80
-45 110 -123 102 -262 -14 -244 -127 -598 -209 -658 -57 -42 -94 -6 -169 166
-83 189 -342 752 -352 765 -7 8 -45 12 -128 12 -66 0 -119 -3 -119 -6z"/>
<path d="M1319 1509 c-13 -25 -7 -105 10 -122 15 -15 45 3 48 29 2 14 0 13 -7
-4 -17 -41 -35 -20 -38 46 -2 51 0 62 13 62 9 0 20 -10 25 -22 5 -13 9 -18 9
-11 3 43 -40 59 -60 22z"/>
<path d="M1500 1455 c0 -43 4 -75 10 -75 6 0 10 32 10 75 0 43 -4 75 -10 75
-6 0 -10 -32 -10 -75z"/>
<path d="M1648 1523 c8 -3 13 -30 14 -76 l2 -72 3 65 c3 46 9 69 20 78 15 10
12 12 -18 11 -19 0 -28 -3 -21 -6z"/>
<path d="M1821 1523 c-1 -6 4 -24 10 -40 6 -15 14 -46 19 -68 7 -37 8 -38 9
-9 1 17 8 51 16 74 8 24 13 45 11 47 -2 2 -10 -13 -17 -34 l-12 -38 -18 40
c-10 22 -18 35 -18 28z"/>
<path d="M2157 1524 c-10 -10 -8 -116 2 -132 5 -8 17 -12 27 -10 16 3 19 13
19 73 0 63 -2 70 -20 73 -12 2 -24 0 -28 -4z m41 -66 c-2 -48 -7 -63 -18 -63
-11 0 -16 13 -18 49 -4 58 2 76 23 76 13 0 15 -11 13 -62z"/>
<path d="M2342 1453 c1 -43 3 -61 5 -41 3 28 9 38 26 41 l22 4 -22 2 c-18 1
-23 7 -23 30 0 23 5 31 23 34 19 4 18 4 -5 6 l-28 1 2 -77z"/>
<path d="M2650 1455 c0 -73 1 -75 25 -75 31 0 45 26 45 82 0 49 -13 68 -47 68
-22 0 -23 -3 -23 -75z m48 3 c-2 -48 -7 -63 -18 -63 -11 0 -16 15 -18 63 -3
57 -1 62 18 62 19 0 21 -5 18 -62z"/>
<path d="M2841 1453 c1 -54 4 -67 8 -43 8 46 35 48 39 3 2 -18 7 -33 12 -33 5
0 7 6 4 14 -3 7 -6 40 -7 72 -2 56 -3 59 -29 62 l-28 3 1 -78z m47 34 c3 -22
-1 -27 -17 -27 -17 0 -21 6 -21 31 0 24 4 30 18 27 10 -2 18 -14 20 -31z"/>
<path d="M3030 1455 l0 -75 33 1 c29 1 30 2 7 8 -35 10 -42 61 -8 62 l23 0
-22 9 c-35 14 -31 57 5 63 25 4 25 4 -5 6 l-33 1 0 -75z"/>
<path d="M3221 1459 c-6 -40 -9 -74 -6 -77 3 -3 5 2 5 11 0 11 8 17 25 17 17
0 25 -6 25 -17 0 -9 3 -14 6 -10 11 10 -18 147 -31 147 -7 0 -17 -29 -24 -71z
m38 -16 c1 -14 -5 -23 -14 -23 -17 0 -18 12 -8 61 7 33 7 33 14 9 4 -14 7 -35
8 -47z"/>
<path d="M3412 1453 c1 -76 1 -77 7 -23 l6 55 9 -52 c4 -29 11 -53 16 -53 9 0
24 70 16 78 -3 3 -6 -5 -6 -17 0 -40 -18 -12 -25 39 -11 77 -25 59 -23 -27z"/>
<path d="M3476 1514 c-3 -9 -6 -23 -6 -32 0 -14 2 -15 10 -2 6 10 10 -4 13
-45 3 -56 3 -55 5 18 2 72 -8 98 -22 61z"/>
<path d="M3626 1512 c-8 -25 2 -50 25 -63 21 -11 25 -44 7 -55 -6 -4 -17 1
-25 11 -7 11 -13 14 -13 8 0 -17 28 -36 45 -29 23 8 18 45 -10 78 -14 17 -24
36 -22 42 6 19 35 18 41 -1 4 -15 5 -15 3 2 -3 27 -43 33 -51 7z"/>
</g>
</svg>
