<svg xmlns="http://www.w3.org/2000/svg" xmlns:xlink="http://www.w3.org/1999/xlink" width="500" zoomAndPan="magnify" viewBox="0 0 375 374.999991" height="500" preserveAspectRatio="xMidYMid meet" version="1.0"><defs><g/></defs><rect x="-37.5" width="450" fill="#ffffff" y="-37.499999" height="449.999989" fill-opacity="1"/><rect x="-37.5" width="450" fill="#ffffff" y="-37.499999" height="449.999989" fill-opacity="1"/><rect x="-37.5" width="450" fill="#000000" y="-37.499999" height="449.999989" fill-opacity="1"/><g fill="#ffffff" fill-opacity="1"><g transform="translate(31.131997, 233.126477)"><g><path d="M 8.914062 0 L 35.398438 0 C 19.226562 -29.03125 11.207031 -62.648438 11.207031 -111.289062 C 11.207031 -111.289062 14.386719 -113.582031 21.519531 -99.957031 C 25.210938 -92.824219 32.46875 -77.671875 44.695312 -54.371094 C 60.355469 -24.574219 77.289062 1.273438 92.953125 1.273438 C 94.734375 1.273438 97.28125 0.765625 98.683594 0 L 98.683594 -127.332031 L 72.199219 -127.332031 C 88.367188 -98.300781 96.390625 -64.683594 96.390625 -17.0625 C 96.390625 -17.0625 94.097656 -14.386719 87.222656 -21.773438 C 81.746094 -27.757812 73.34375 -40.109375 60.609375 -63.667969 C 36.671875 -107.976562 33.617188 -128.605469 14.644531 -128.605469 C 12.859375 -128.605469 10.3125 -128.097656 8.914062 -127.332031 Z M 8.914062 0 "/></g></g></g><g fill="#ffffff" fill-opacity="1"><g transform="translate(138.726882, 233.126477)"><g><path d="M 2.546875 -127.332031 C 14.769531 -100.210938 22.664062 -83.785156 33.996094 -57.9375 C 36.800781 -51.570312 41.636719 -45.96875 47.238281 -45.96875 C 54.753906 -45.96875 58.574219 -49.277344 60.992188 -52.207031 L 39.21875 0 L 70.542969 0 C 63.15625 -9.804688 61.121094 -21.773438 61.121094 -30.6875 C 61.121094 -50.042969 70.542969 -68.378906 77.417969 -84.546875 C 81.238281 -93.589844 92.316406 -124.277344 102.882812 -126.695312 L 102.882812 -127.332031 L 65.574219 -127.332031 L 65.574219 -126.695312 C 73.34375 -125.292969 76.398438 -118.164062 76.398438 -109.125 C 76.398438 -96.773438 70.414062 -74.617188 67.484375 -67.996094 C 62.519531 -56.664062 60.226562 -55.773438 58.0625 -55.773438 C 54.242188 -55.773438 52.460938 -59.210938 47.367188 -70.796875 C 38.964844 -89.898438 31.707031 -104.921875 21.644531 -127.332031 Z M 2.546875 -127.332031 "/></g></g></g><g fill="#ffffff" fill-opacity="1"><g transform="translate(244.157152, 233.126477)"><g><path d="M 58.699219 1.273438 C 85.3125 1.273438 97.792969 -14.132812 97.792969 -14.132812 L 87.605469 -30.433594 C 87.605469 -30.433594 81.367188 -17.570312 59.847656 -17.570312 C 30.8125 -17.570312 15.152344 -45.96875 15.152344 -78.308594 C 15.152344 -102.628906 25.210938 -119.945312 42.65625 -119.945312 C 57.042969 -119.945312 71.5625 -112.050781 81.621094 -100.210938 L 94.097656 -115.109375 C 89.386719 -122.238281 76.273438 -128.605469 63.15625 -128.605469 C 26.996094 -128.605469 5.09375 -101.609375 5.09375 -65.320312 C 5.09375 -30.304688 23.300781 1.273438 58.699219 1.273438 Z M 58.699219 1.273438 "/></g></g></g><g fill="#ffffff" fill-opacity="1"><g transform="translate(48.603568, 278.384631)"><g><path d="M 4.828125 -17.890625 C 6.203125 -17.890625 7.210938 -17.484375 7.859375 -16.671875 C 8.503906 -15.867188 8.828125 -14.789062 8.828125 -13.4375 L 8.828125 -11.84375 L 6.953125 -11.84375 L 6.953125 -13.546875 C 6.953125 -14.347656 6.785156 -14.972656 6.453125 -15.421875 C 6.128906 -15.867188 5.609375 -16.09375 4.890625 -16.09375 C 4.179688 -16.09375 3.65625 -15.867188 3.3125 -15.421875 C 2.976562 -14.972656 2.8125 -14.347656 2.8125 -13.546875 L 2.8125 -4.171875 C 2.8125 -3.367188 2.976562 -2.742188 3.3125 -2.296875 C 3.65625 -1.847656 4.179688 -1.625 4.890625 -1.625 C 5.609375 -1.625 6.128906 -1.847656 6.453125 -2.296875 C 6.785156 -2.742188 6.953125 -3.367188 6.953125 -4.171875 L 6.953125 -6.484375 L 8.828125 -6.484375 L 8.828125 -4.28125 C 8.828125 -2.925781 8.503906 -1.84375 7.859375 -1.03125 C 7.210938 -0.226562 6.203125 0.171875 4.828125 0.171875 C 3.484375 0.171875 2.484375 -0.226562 1.828125 -1.03125 C 1.179688 -1.84375 0.859375 -2.925781 0.859375 -4.28125 L 0.859375 -13.4375 C 0.859375 -14.113281 0.9375 -14.722656 1.09375 -15.265625 C 1.257812 -15.816406 1.503906 -16.285156 1.828125 -16.671875 C 2.160156 -17.066406 2.578125 -17.367188 3.078125 -17.578125 C 3.578125 -17.785156 4.160156 -17.890625 4.828125 -17.890625 Z M 4.828125 -17.890625 "/></g></g></g><g fill="#ffffff" fill-opacity="1"><g transform="translate(70.224799, 278.384631)"><g><path d="M 2.984375 -17.71875 L 2.984375 0 L 1.015625 0 L 1.015625 -17.71875 Z M 2.984375 -17.71875 "/></g></g></g><g fill="#ffffff" fill-opacity="1"><g transform="translate(86.226639, 278.384631)"><g><path d="M 3.5625 0 L 3.5625 -15.921875 L 0.296875 -15.921875 L 0.296875 -17.71875 L 8.78125 -17.71875 L 8.78125 -15.921875 L 5.515625 -15.921875 L 5.515625 0 Z M 3.5625 0 "/></g></g></g><g fill="#ffffff" fill-opacity="1"><g transform="translate(107.341619, 278.384631)"><g><path d="M 4.15625 -6.359375 L 0.40625 -17.71875 L 2.453125 -17.71875 L 5.21875 -9.015625 L 8 -17.71875 L 9.875 -17.71875 L 6.09375 -6.359375 L 6.09375 0 L 4.15625 0 Z M 4.15625 -6.359375 "/></g></g></g><g fill="#ffffff" fill-opacity="1"><g transform="translate(129.620976, 278.384631)"><g/></g></g><g fill="#ffffff" fill-opacity="1"><g transform="translate(145.546887, 278.384631)"><g><path d="M 0.859375 -13.4375 C 0.859375 -14.800781 1.191406 -15.882812 1.859375 -16.6875 C 2.523438 -17.488281 3.539062 -17.890625 4.90625 -17.890625 C 6.269531 -17.890625 7.289062 -17.488281 7.96875 -16.6875 C 8.644531 -15.882812 8.984375 -14.800781 8.984375 -13.4375 L 8.984375 -4.28125 C 8.984375 -2.925781 8.644531 -1.84375 7.96875 -1.03125 C 7.289062 -0.226562 6.269531 0.171875 4.90625 0.171875 C 3.539062 0.171875 2.523438 -0.226562 1.859375 -1.03125 C 1.191406 -1.84375 0.859375 -2.925781 0.859375 -4.28125 Z M 2.8125 -4.171875 C 2.8125 -3.367188 2.984375 -2.742188 3.328125 -2.296875 C 3.671875 -1.847656 4.195312 -1.625 4.90625 -1.625 C 5.632812 -1.625 6.164062 -1.847656 6.5 -2.296875 C 6.84375 -2.742188 7.015625 -3.367188 7.015625 -4.171875 L 7.015625 -13.546875 C 7.015625 -14.347656 6.84375 -14.972656 6.5 -15.421875 C 6.164062 -15.867188 5.632812 -16.09375 4.90625 -16.09375 C 4.195312 -16.09375 3.671875 -15.867188 3.328125 -15.421875 C 2.984375 -14.972656 2.8125 -14.347656 2.8125 -13.546875 Z M 2.8125 -4.171875 "/></g></g></g><g fill="#ffffff" fill-opacity="1"><g transform="translate(167.395923, 278.384631)"><g><path d="M 7.0625 -9.46875 L 7.0625 -7.671875 L 2.984375 -7.671875 L 2.984375 0 L 1.015625 0 L 1.015625 -17.71875 L 8.046875 -17.71875 L 8.046875 -15.921875 L 2.984375 -15.921875 L 2.984375 -9.46875 Z M 7.0625 -9.46875 "/></g></g></g><g fill="#ffffff" fill-opacity="1"><g transform="translate(188.004648, 278.384631)"><g/></g></g><g fill="#ffffff" fill-opacity="1"><g transform="translate(203.930555, 278.384631)"><g><path d="M 5.15625 -17.71875 C 6.539062 -17.71875 7.554688 -17.320312 8.203125 -16.53125 C 8.859375 -15.75 9.1875 -14.675781 9.1875 -13.3125 L 9.1875 -4.375 C 9.1875 -3.007812 8.859375 -1.9375 8.203125 -1.15625 C 7.554688 -0.382812 6.539062 0 5.15625 0 L 1.015625 0 L 1.015625 -17.71875 Z M 5.140625 -1.796875 C 5.847656 -1.796875 6.375 -2.007812 6.71875 -2.4375 C 7.0625 -2.875 7.234375 -3.492188 7.234375 -4.296875 L 7.234375 -13.421875 C 7.234375 -14.222656 7.0625 -14.835938 6.71875 -15.265625 C 6.375 -15.703125 5.835938 -15.921875 5.109375 -15.921875 L 2.984375 -15.921875 L 2.984375 -1.796875 Z M 5.140625 -1.796875 "/></g></g></g><g fill="#ffffff" fill-opacity="1"><g transform="translate(225.956779, 278.384631)"><g><path d="M 4.96875 -17.71875 C 6.363281 -17.71875 7.367188 -17.367188 7.984375 -16.671875 C 8.597656 -15.984375 8.90625 -14.984375 8.90625 -13.671875 L 8.90625 -12.21875 C 8.90625 -11.238281 8.726562 -10.445312 8.375 -9.84375 C 8.019531 -9.238281 7.460938 -8.816406 6.703125 -8.578125 C 7.515625 -8.335938 8.085938 -7.898438 8.421875 -7.265625 C 8.765625 -6.640625 8.9375 -5.847656 8.9375 -4.890625 L 8.9375 -2.125 C 8.9375 -1.738281 8.953125 -1.363281 8.984375 -1 C 9.015625 -0.632812 9.117188 -0.300781 9.296875 0 L 7.296875 0 C 7.171875 -0.25 7.082031 -0.519531 7.03125 -0.8125 C 6.976562 -1.113281 6.953125 -1.5625 6.953125 -2.15625 L 6.953125 -4.9375 C 6.953125 -5.925781 6.726562 -6.609375 6.28125 -6.984375 C 5.84375 -7.367188 5.207031 -7.5625 4.375 -7.5625 L 2.984375 -7.5625 L 2.984375 0 L 1.015625 0 L 1.015625 -17.71875 Z M 4.453125 -9.359375 C 5.242188 -9.359375 5.859375 -9.523438 6.296875 -9.859375 C 6.734375 -10.191406 6.953125 -10.835938 6.953125 -11.796875 L 6.953125 -13.484375 C 6.953125 -14.296875 6.796875 -14.90625 6.484375 -15.3125 C 6.179688 -15.71875 5.65625 -15.921875 4.90625 -15.921875 L 2.984375 -15.921875 L 2.984375 -9.359375 Z M 4.453125 -9.359375 "/></g></g></g><g fill="#ffffff" fill-opacity="1"><g transform="translate(247.932375, 278.384631)"><g><path d="M 7.3125 -9.875 L 7.3125 -8.09375 L 2.984375 -8.09375 L 2.984375 -1.796875 L 8.296875 -1.796875 L 8.296875 0 L 1.015625 0 L 1.015625 -17.71875 L 8.296875 -17.71875 L 8.296875 -15.921875 L 2.984375 -15.921875 L 2.984375 -9.875 Z M 7.3125 -9.875 "/></g></g></g><g fill="#ffffff" fill-opacity="1"><g transform="translate(269.047364, 278.384631)"><g><path d="M 3.015625 -3.5625 L 2.328125 0 L 0.5 0 L 3.890625 -17.71875 L 6.765625 -17.71875 L 10.15625 0 L 8.171875 0 L 7.5 -3.5625 Z M 3.265625 -5.265625 L 7.21875 -5.265625 L 5.21875 -15.484375 Z M 3.265625 -5.265625 "/></g></g></g><g fill="#ffffff" fill-opacity="1"><g transform="translate(291.731727, 278.384631)"><g><path d="M 7.546875 -0.03125 L 5.640625 -0.03125 L 2.703125 -14.125 L 2.703125 0 L 0.984375 0 L 0.984375 -17.71875 L 3.75 -17.71875 L 6.65625 -3.5625 L 9.46875 -17.71875 L 12.21875 -17.71875 L 12.21875 0 L 10.359375 0 L 10.359375 -14.25 Z M 7.546875 -0.03125 "/></g></g></g><g fill="#ffffff" fill-opacity="1"><g transform="translate(316.972631, 278.384631)"><g><path d="M 4.734375 -17.890625 C 6.085938 -17.890625 7.082031 -17.488281 7.71875 -16.6875 C 8.363281 -15.882812 8.6875 -14.8125 8.6875 -13.46875 L 8.6875 -12.984375 L 6.8125 -12.984375 L 6.8125 -13.5625 C 6.8125 -14.375 6.648438 -15 6.328125 -15.4375 C 6.003906 -15.875 5.488281 -16.09375 4.78125 -16.09375 C 4.070312 -16.09375 3.554688 -15.875 3.234375 -15.4375 C 2.921875 -15 2.765625 -14.382812 2.765625 -13.59375 C 2.765625 -12.9375 2.910156 -12.363281 3.203125 -11.875 C 3.492188 -11.382812 3.859375 -10.929688 4.296875 -10.515625 C 4.742188 -10.097656 5.222656 -9.691406 5.734375 -9.296875 C 6.242188 -8.898438 6.71875 -8.46875 7.15625 -8 C 7.601562 -7.53125 7.972656 -6.992188 8.265625 -6.390625 C 8.554688 -5.796875 8.703125 -5.082031 8.703125 -4.25 C 8.703125 -2.90625 8.378906 -1.832031 7.734375 -1.03125 C 7.085938 -0.226562 6.078125 0.171875 4.703125 0.171875 C 3.335938 0.171875 2.332031 -0.226562 1.6875 -1.03125 C 1.050781 -1.832031 0.734375 -2.90625 0.734375 -4.25 L 0.734375 -5.265625 L 2.578125 -5.265625 L 2.578125 -4.15625 C 2.578125 -3.34375 2.742188 -2.71875 3.078125 -2.28125 C 3.421875 -1.84375 3.945312 -1.625 4.65625 -1.625 C 5.363281 -1.625 5.882812 -1.84375 6.21875 -2.28125 C 6.5625 -2.71875 6.734375 -3.34375 6.734375 -4.15625 C 6.734375 -4.8125 6.582031 -5.378906 6.28125 -5.859375 C 5.988281 -6.335938 5.625 -6.785156 5.1875 -7.203125 C 4.75 -7.617188 4.273438 -8.023438 3.765625 -8.421875 C 3.265625 -8.816406 2.796875 -9.25 2.359375 -9.71875 C 1.921875 -10.1875 1.550781 -10.71875 1.25 -11.3125 C 0.957031 -11.914062 0.8125 -12.632812 0.8125 -13.46875 C 0.8125 -14.832031 1.128906 -15.910156 1.765625 -16.703125 C 2.410156 -17.492188 3.398438 -17.890625 4.734375 -17.890625 Z M 4.734375 -17.890625 "/></g></g></g></svg>