<?xml version="1.0" standalone="no"?>
<!DOCTYPE svg PUBLIC "-//W3C//DTD SVG 20010904//EN"
 "http://www.w3.org/TR/2001/REC-SVG-20010904/DTD/svg10.dtd">
<svg version="1.0" xmlns="http://www.w3.org/2000/svg"
 width="495.000000pt" height="185.000000pt" viewBox="0 0 495.000000 185.000000"
 preserveAspectRatio="xMidYMid meet">

<g transform="translate(0.000000,185.000000) scale(0.100000,-0.100000)"
fill="#000000" stroke="none">
<path d="M1082 1749 c-13 -5 -30 -25 -38 -46 -40 -94 -204 -589 -204 -614 0
-52 59 -79 92 -41 9 9 40 87 69 172 31 91 63 164 76 178 25 25 61 29 69 8 3
-8 -11 -66 -32 -129 -42 -134 -41 -171 7 -211 57 -48 138 -46 208 4 22 17 41
26 41 21 0 -5 20 -19 46 -31 101 -49 262 -20 344 62 74 74 105 169 60 183 -33
10 -59 -4 -79 -44 -57 -111 -206 -166 -272 -100 -24 24 -23 77 1 70 8 -3 38
-7 67 -9 162 -12 245 188 114 275 -48 32 -129 32 -185 -1 -50 -29 -73 -69
-116 -199 -22 -68 -42 -108 -65 -132 -32 -34 -68 -45 -80 -25 -4 6 12 66 35
134 38 114 40 125 28 161 -18 53 -69 88 -124 83 l-40 -3 29 93 c24 74 28 97
19 116 -12 27 -39 36 -70 25z m504 -344 c15 -23 15 -27 0 -50 -12 -18 -25 -25
-50 -25 -18 0 -35 3 -39 6 -8 8 10 55 30 76 22 25 40 22 59 -7z"/>
<path d="M3706 1739 c-15 -12 -26 -30 -26 -45 0 -29 41 -74 68 -74 28 0 62 37
62 68 0 33 -8 45 -37 61 -30 15 -36 14 -67 -10z"/>
<path d="M512 1728 c-12 -6 -25 -23 -29 -36 -10 -41 26 -62 103 -62 35 0 64
-4 64 -9 0 -5 -38 -123 -85 -262 -47 -139 -85 -265 -85 -281 0 -47 70 -66 105
-28 10 11 61 147 114 303 l96 282 88 3 c80 3 88 5 103 27 15 23 15 27 0 50
l-16 25 -218 -1 c-135 0 -226 -4 -240 -11z"/>
<path d="M3869 1589 c-43 -16 -60 -73 -38 -122 9 -19 4 -40 -26 -118 -59 -153
-105 -213 -149 -196 -24 9 -20 32 29 178 25 74 45 144 45 156 0 47 -61 71 -93
35 -9 -9 -35 -71 -58 -137 -23 -66 -50 -134 -61 -152 -16 -28 -73 -73 -91 -73
-4 0 11 50 33 111 22 61 40 125 40 142 0 77 -77 138 -151 119 -30 -8 -41 -7
-50 4 -6 8 -27 14 -45 14 -44 0 -53 -14 -109 -179 -64 -188 -85 -221 -137
-221 -37 0 -37 15 7 136 44 120 45 163 6 206 -24 27 -36 32 -88 36 -43 3 -70
-1 -96 -13 -32 -15 -38 -15 -59 -1 -33 22 -212 19 -232 -3 -8 -9 -35 -74 -60
-146 -25 -71 -53 -140 -64 -154 -43 -58 -158 -90 -215 -60 -29 16 -37 28 -37
63 0 26 2 28 28 20 120 -37 232 38 234 155 1 53 -28 97 -77 121 -73 35 -155
19 -209 -40 -38 -42 -99 -208 -99 -269 0 -75 50 -130 137 -152 51 -13 153 -7
187 11 15 8 25 7 41 -5 30 -20 64 -19 87 4 10 10 35 70 56 132 67 202 74 218
106 235 64 33 64 1 -2 -186 -54 -154 -55 -180 -8 -195 46 -15 70 21 131 191
57 158 85 204 124 204 28 0 26 -32 -10 -134 -47 -133 -47 -177 -2 -222 33 -33
57 -40 114 -35 26 2 26 7 -7 -93 -15 -42 -19 -46 -30 -32 -16 19 -51 21 -75 3
-9 -7 -34 -60 -54 -117 -37 -104 -37 -105 -72 -108 -47 -5 -62 -19 -58 -56 2
-25 9 -32 30 -36 l27 -5 -33 -100 c-18 -55 -40 -115 -49 -132 -29 -56 -107
-81 -107 -35 0 10 22 85 50 166 44 132 48 152 37 175 -15 32 -58 39 -93 16
-18 -12 -29 -13 -43 -5 -29 15 -98 12 -137 -6 -44 -21 -64 -56 -109 -194 -45
-135 -82 -184 -136 -178 -55 5 -56 22 -13 159 38 120 40 124 69 127 50 5 85
23 91 48 8 32 -12 54 -47 54 -16 0 -29 4 -29 8 0 5 11 42 25 82 29 85 31 113
10 130 -19 16 -61 16 -79 0 -8 -6 -23 -35 -32 -63 -47 -144 -54 -157 -84 -157
-15 0 -38 -8 -50 -18 -30 -24 -21 -69 15 -78 29 -7 28 -14 -17 -141 -22 -61
-38 -89 -59 -104 l-29 -20 0 35 c0 22 -15 64 -40 111 -44 84 -47 97 -25 115
21 17 19 73 -3 93 -21 19 -64 22 -92 7 -10 -5 -45 -59 -77 -120 -33 -62 -66
-113 -76 -116 -30 -10 -57 -64 -57 -116 0 -101 96 -155 257 -145 62 4 97 11
138 31 l54 27 32 -23 c41 -31 157 -33 206 -3 31 18 33 18 52 1 32 -29 93 -32
144 -7 l44 21 48 -21 c55 -24 111 -21 163 11 31 19 32 19 64 1 69 -40 144 -35
220 15 l37 24 36 -25 c43 -29 105 -40 186 -32 109 10 201 75 250 178 27 59 20
82 -30 87 -26 3 -34 -2 -49 -29 -27 -51 -84 -111 -119 -126 -38 -15 -116 -17
-143 -3 -26 14 -42 47 -35 70 5 16 10 17 31 10 76 -29 173 8 211 80 28 52 29
94 4 140 -53 100 -221 100 -287 1 -13 -20 -39 -83 -58 -140 -47 -140 -108
-202 -166 -171 -28 15 -25 47 18 175 l37 110 48 6 c51 5 67 19 67 56 0 24 -26
43 -59 43 -19 0 -19 2 5 74 l25 74 30 -16 c26 -15 31 -16 56 -2 23 13 35 35
64 120 31 88 40 104 55 101 11 -3 69 -5 129 -5 95 -1 117 2 162 22 l51 24 30
-22 c77 -57 194 -25 266 72 24 32 51 87 69 140 30 91 48 108 77 73 11 -13 8
-31 -14 -104 -25 -82 -26 -91 -13 -123 38 -90 154 -105 238 -32 14 13 18 12
28 0 41 -49 211 -59 303 -18 62 27 131 97 153 156 23 59 13 81 -36 81 -30 0
-36 -5 -60 -50 -37 -70 -92 -108 -169 -113 -77 -6 -110 13 -110 63 0 33 0 33
32 24 75 -21 158 4 198 61 33 47 38 124 10 168 -28 46 -98 76 -155 67 -89 -13
-137 -66 -181 -198 -43 -131 -78 -187 -116 -187 -25 0 -23 28 7 112 14 38 25
84 25 103 0 44 -37 88 -95 112 -25 10 -45 23 -45 30 0 25 -23 61 -47 72 -13 6
-25 11 -26 10 -1 0 -14 -5 -28 -10z m549 -151 c34 -34 -1 -91 -52 -86 -38 4
-43 22 -16 66 20 33 47 41 68 20z m-1054 -20 c8 -13 3 -41 -23 -120 -40 -124
-54 -148 -85 -148 -48 0 -50 20 -12 142 19 62 43 121 53 131 21 21 52 19 67
-5z m-1056 -11 c10 -53 -23 -85 -74 -73 -27 7 -27 28 3 74 18 28 66 27 71 -1z
m936 -829 c13 -38 -14 -68 -62 -68 -33 0 -34 1 -28 32 13 67 71 90 90 36z
m-746 10 c39 -39 -41 -278 -94 -278 -28 0 -33 25 -18 86 44 175 76 228 112
192z m-723 -148 c20 -38 19 -99 -2 -122 -20 -22 -76 -24 -93 -3 -11 13 -8 15
13 15 49 0 83 72 57 121 -7 13 -7 19 -1 19 6 0 17 -13 26 -30z"/>
</g>
</svg>
